<svg xmlns="http://www.w3.org/2000/svg" viewBox="0 0 640 360" role="img" aria-label="ByteMind News preview">
  <defs>
    <linearGradient id="bg" x1="0" y1="0" x2="1" y2="1">
      <stop offset="0%" stop-color="#1e293b"/>
      <stop offset="100%" stop-color="#334155"/>
    </linearGradient>
  </defs>
  <rect width="640" height="360" fill="url(#bg)"/>
  <rect x="28" y="28" width="584" height="48" rx="10" fill="#0f172a"/>
  <circle cx="52" cy="52" r="8" fill="#f59e0b"/>
  <circle cx="76" cy="52" r="8" fill="#22c55e"/>
  <circle cx="100" cy="52" r="8" fill="#38bdf8"/>
  <rect x="130" y="42" width="160" height="20" rx="6" fill="#475569"/>
  <rect x="28" y="96" width="180" height="236" rx="12" fill="#0f172a"/>
  <rect x="48" y="120" width="140" height="14" rx="4" fill="#64748b"/>
  <rect x="48" y="148" width="120" height="10" rx="4" fill="#334155"/>
  <rect x="48" y="172" width="120" height="10" rx="4" fill="#334155"/>
  <rect x="48" y="196" width="100" height="10" rx="4" fill="#334155"/>
  <rect x="224" y="96" width="388" height="110" rx="12" fill="#f8fafc"/>
  <rect x="244" y="116" width="220" height="16" rx="4" fill="#0f172a"/>
  <rect x="244" y="144" width="340" height="10" rx="4" fill="#94a3b8"/>
  <rect x="244" y="164" width="300" height="10" rx="4" fill="#cbd5e1"/>
  <rect x="224" y="222" width="186" height="110" rx="12" fill="#e2e8f0"/>
  <rect x="426" y="222" width="186" height="110" rx="12" fill="#e2e8f0"/>
  <text x="48" y="320" font-family="Georgia, serif" font-size="22" fill="#f8fafc">ByteMind News</text>
</svg>
