<svg xmlns="http://www.w3.org/2000/svg" viewBox="0 0 640 360" role="img" aria-label="Design showcase preview">
  <rect width="640" height="360" fill="#f4efe7"/>
  <rect x="28" y="36" width="170" height="140" rx="12" fill="#fff" stroke="#e0d3c2"/>
  <circle cx="113" cy="90" r="34" fill="#1c1917"/>
  <text x="113" y="98" text-anchor="middle" font-family="Georgia, serif" font-size="28" fill="#f5f2ed">T</text>
  <text x="113" y="150" text-anchor="middle" font-family="Figtree, sans-serif" font-size="12" fill="#6f6a64">Logo</text>
  <rect x="220" y="36" width="190" height="140" rx="12" fill="#2a241e"/>
  <rect x="240" y="56" width="150" height="14" rx="4" fill="#f5d792"/>
  <rect x="240" y="84" width="120" height="10" rx="4" fill="#a39c93"/>
  <rect x="240" y="108" width="150" height="40" rx="8" fill="#7d8f6f"/>
  <text x="315" y="150" text-anchor="middle" font-family="Figtree, sans-serif" font-size="12" fill="#a39c93">Social post</text>
  <rect x="432" y="36" width="180" height="140" rx="12" fill="#fff" stroke="#e0d3c2"/>
  <rect x="452" y="56" width="140" height="70" rx="8" fill="#dfd8ee"/>
  <rect x="452" y="140" width="90" height="10" rx="4" fill="#6f6a64"/>
  <text x="522" y="168" text-anchor="middle" font-family="Figtree, sans-serif" font-size="12" fill="#6f6a64">Banner</text>
  <rect x="28" y="196" width="584" height="120" rx="12" fill="#1c1917"/>
  <rect x="52" y="220" width="200" height="16" rx="4" fill="#f5f2ed"/>
  <rect x="52" y="250" width="320" height="10" rx="4" fill="#a39c93"/>
  <rect x="52" y="274" width="140" height="18" rx="9" fill="#7d8f6f"/>
  <text x="28" y="345" font-family="Georgia, serif" font-size="18" fill="#1c1917">Brand &amp; Social Design</text>
</svg>
